<?xml version='1.0' encoding='UTF-8' standalone='no'?>
<!-- Created with Fritzing (http://www.fritzing.org/) -->
<svg xmlns:svg='http://www.w3.org/2000/svg' xmlns='http://www.w3.org/2000/svg' version='1.2' baseProfile='tiny' x='0in' y='0in' width='2.94252in' height='2.62724in' viewBox='0 0 211.862 189.161' >
<g partID='854216030'><g transform='translate(10.6571,115.761)' ><g transform='matrix(0,1,-1,0,0,0)'  ><g xmlns="http://www.w3.org/2000/svg" id="schematic">
<line class="other" x1="7.55002" x2="8.63003" xmlns="http://www.w3.org/2000/svg" stroke="#000000" stroke-linecap="round" y1="3.096" y2="0.216" stroke-width="0.432002"/>
<line class="other" x1="8.63003" x2="10.43" xmlns="http://www.w3.org/2000/svg" stroke="#000000" stroke-linecap="round" y1="0.216" y2="5.976" stroke-width="0.432002"/>
<line class="other" x1="10.43" x2="12.23" xmlns="http://www.w3.org/2000/svg" stroke="#000000" stroke-linecap="round" y1="5.976" y2="0.216" stroke-width="0.432002"/>
<line class="other" x1="12.23" x2="14.03" xmlns="http://www.w3.org/2000/svg" stroke="#000000" stroke-linecap="round" y1="0.216" y2="5.976" stroke-width="0.432002"/>
<line class="other" x1="14.03" x2="15.8301" xmlns="http://www.w3.org/2000/svg" stroke="#000000" stroke-linecap="round" y1="5.976" y2="0.216" stroke-width="0.432002"/>
<line class="other" x1="15.8301" x2="17.6301" xmlns="http://www.w3.org/2000/svg" stroke="#000000" stroke-linecap="round" y1="0.216" y2="5.976" stroke-width="0.432002"/>
<line class="other" x1="17.6301" x2="19.4301" xmlns="http://www.w3.org/2000/svg" stroke="#000000" stroke-linecap="round" y1="5.976" y2="0.216" stroke-width="0.432002"/>
<line class="other" x1="19.4301" x2="21.2301" xmlns="http://www.w3.org/2000/svg" stroke="#000000" stroke-linecap="round" y1="0.216" y2="5.976" stroke-width="0.432002"/>
<line class="other" x1="21.2301" x2="21.9501" xmlns="http://www.w3.org/2000/svg" stroke="#000000" stroke-linecap="round" y1="5.976" y2="3.096" stroke-width="0.432002"/>
<line class="pin" x1="29.1502" x2="21.9501" xmlns="http://www.w3.org/2000/svg" connectorname="2" id="connector1pin" stroke="#787878" stroke-linecap="round" y1="3.096" y2="3.096" stroke-width="0.700001"/>
<g class="terminal" xmlns="http://www.w3.org/2000/svg" x="29.1502" id="connector1terminal" y="3.096" fill="none" stroke="none" width="0.000283466" stroke-width="0" height="0.000283465"/>
<text class="text" xmlns="http://www.w3.org/2000/svg" font-size="2.50001" font-family="'Droid Sans'" x="25.5501" fill="#8c8c8c" y="2.046" stroke="none" stroke-width="0" text-anchor="middle">2</text>
<line class="pin" x1="0.350001" x2="7.55002" xmlns="http://www.w3.org/2000/svg" connectorname="1" id="connector0pin" stroke="#787878" stroke-linecap="round" y1="3.096" y2="3.096" stroke-width="0.700001"/>
<g class="terminal" xmlns="http://www.w3.org/2000/svg" x="0.350001" id="connector0terminal" y="3.096" fill="none" stroke="none" width="0.000283466" stroke-width="0" height="0.000283465"/>
<text class="text" xmlns="http://www.w3.org/2000/svg" font-size="2.50001" font-family="'Droid Sans'" x="3.95001" fill="#8c8c8c" y="2.046" stroke="none" stroke-width="0" text-anchor="middle">1</text>
</g>
</g></g></g><g partID='854206710'><g transform='translate(43.5615,8.11126)' ><g id="schematic">
<rect x="14.85" y="14.85" fill="#FFFFFF" stroke="#000000" stroke-linecap="round" width="78.3" stroke-width="0.3175" height="150.3"/>
<line x1="93.25" x2="107.65" id="connector61pin" fill="none" stroke="#787878" stroke-linecap="round" y1="28.8" stroke-width="0.2469" y2="28.8"/>
<g transform="matrix(1, 0, 0, 1, 82.2432, 29.5)">
<text font-size="3.5" font-family="'DroidSans'" fill="#8C8C8C">D0/RX</text>
</g>
<g x="107.65" id="connector61terminal" y="28.45" fill="none" width="0.699" height="0.7"/>
<line x1="93.25" x2="107.65" id="connector62pin" fill="none" stroke="#787878" stroke-linecap="round" y1="36" stroke-width="0.2469" y2="36"/>
<g transform="matrix(1, 0, 0, 1, 82.4912, 36.7012)">
<text font-size="3.5" font-family="'DroidSans'" fill="#8C8C8C">D1/TX</text>
</g>
<g x="107.65" id="connector62terminal" y="35.65" fill="none" width="0.699" height="0.7"/>
<line x1="93.25" x2="107.65" id="connector63pin" fill="none" stroke="#787878" stroke-linecap="round" y1="43.2" stroke-width="0.2469" y2="43.2"/>
<g transform="matrix(1, 0, 0, 1, 87.5283, 43.9004)">
<text font-size="3.5" font-family="'DroidSans'" fill="#8C8C8C">D2</text>
</g>
<g x="107.65" id="connector63terminal" y="42.85" fill="none" width="0.699" height="0.7"/>
<line x1="93.25" x2="107.65" id="connector64pin" fill="none" stroke="#787878" stroke-linecap="round" y1="50.4" stroke-width="0.2469" y2="50.4"/>
<g transform="matrix(1, 0, 0, 1, 78.4639, 51.0996)">
<text font-size="3.5" font-family="'DroidSans'" fill="#8C8C8C">D3 PWM</text>
</g>
<g x="107.65" id="connector64terminal" y="50.05" fill="none" width="0.699" height="0.7"/>
<line x1="93.25" x2="107.65" id="connector65pin" fill="none" stroke="#787878" stroke-linecap="round" y1="57.6" stroke-width="0.2469" y2="57.6"/>
<g transform="matrix(1, 0, 0, 1, 87.5283, 58.3008)">
<text font-size="3.5" font-family="'DroidSans'" fill="#8C8C8C">D4</text>
</g>
<g x="107.65" id="connector65terminal" y="57.25" fill="none" width="0.699" height="0.7"/>
<line x1="93.25" x2="107.65" id="connector66pin" fill="none" stroke="#787878" stroke-linecap="round" y1="64.8" stroke-width="0.2469" y2="64.8"/>
<g transform="matrix(1, 0, 0, 1, 78.4639, 65.5)">
<text font-size="3.5" font-family="'DroidSans'" fill="#8C8C8C">D5 PWM</text>
</g>
<g x="107.65" id="connector66terminal" y="64.45" fill="none" width="0.699" height="0.7"/>
<line x1="93.25" x2="107.65" id="connector67pin" fill="none" stroke="#787878" stroke-linecap="round" y1="72" stroke-width="0.2469" y2="72"/>
<g transform="matrix(1, 0, 0, 1, 78.4639, 72.7012)">
<text font-size="3.5" font-family="'DroidSans'" fill="#8C8C8C">D6 PWM</text>
</g>
<g x="107.65" id="connector67terminal" y="71.65" fill="none" width="0.699" height="0.7"/>
<line x1="93.25" x2="107.65" id="connector68pin" fill="none" stroke="#787878" stroke-linecap="round" y1="79.2" stroke-width="0.2469" y2="79.2"/>
<g transform="matrix(1, 0, 0, 1, 87.5283, 79.9004)">
<text font-size="3.5" font-family="'DroidSans'" fill="#8C8C8C">D7</text>
</g>
<g x="107.65" id="connector68terminal" y="78.85" fill="none" width="0.699" height="0.7"/>
<line x1="93.25" x2="107.65" id="connector51pin" fill="none" stroke="#787878" stroke-linecap="round" y1="86.4" stroke-width="0.2469" y2="86.4"/>
<g transform="matrix(1, 0, 0, 1, 87.5283, 87.0996)">
<text font-size="3.5" font-family="'DroidSans'" fill="#8C8C8C">D8</text>
</g>
<g x="107.65" id="connector51terminal" y="86.05" fill="none" width="0.699" height="0.7"/>
<line x1="93.25" x2="107.65" id="connector52pin" fill="none" stroke="#787878" stroke-linecap="round" y1="93.6" stroke-width="0.2469" y2="93.6"/>
<g transform="matrix(1, 0, 0, 1, 78.4639, 94.3008)">
<text font-size="3.5" font-family="'DroidSans'" fill="#8C8C8C">D9 PWM</text>
</g>
<g x="107.65" id="connector52terminal" y="93.25" fill="none" width="0.699" height="0.699"/>
<line x1="93.25" x2="107.65" id="connector53pin" fill="none" stroke="#787878" stroke-linecap="round" y1="100.8" stroke-width="0.2469" y2="100.8"/>
<g transform="matrix(1, 0, 0, 1, 71.5967, 101.5)">
<text font-size="3.5" font-family="'DroidSans'" fill="#8C8C8C">D10 PWM/SS</text>
</g>
<g x="107.65" id="connector53terminal" y="100.449" fill="none" width="0.699" height="0.701"/>
<line x1="93.25" x2="107.65" id="connector54pin" fill="none" stroke="#787878" stroke-linecap="round" y1="108" stroke-width="0.2469" y2="108"/>
<g transform="matrix(1, 0, 0, 1, 66.585, 108.701)">
<text font-size="3.5" font-family="'DroidSans'" fill="#8C8C8C">D11 PWM/MOSI</text>
</g>
<g x="107.65" id="connector54terminal" y="107.65" fill="none" width="0.699" height="0.699"/>
<line x1="93.25" x2="107.65" id="connector55pin" fill="none" stroke="#787878" stroke-linecap="round" y1="115.2" stroke-width="0.2469" y2="115.2"/>
<g transform="matrix(1, 0, 0, 1, 75.6494, 115.9)">
<text font-size="3.5" font-family="'DroidSans'" fill="#8C8C8C">D12/MISO</text>
</g>
<g x="107.65" id="connector55terminal" y="114.85" fill="none" width="0.699" height="0.7"/>
<line x1="93.25" x2="107.65" id="connector41pin" fill="none" y1="122.4" y2="122.4"/>
<rect x="107.65" id="connector41terminal" y="122.05" fill="none" width="0.699" height="0.7"/>
<line x1="93.25" x2="107.65" id="connector56pin" fill="none" stroke="#787878" stroke-linecap="round" y1="122.4" stroke-width="0.2469" y2="122.4"/>
<g transform="matrix(1, 0, 0, 1, 78.3408, 123.1)">
<text font-size="3.5" font-family="'DroidSans'" fill="#8C8C8C">D13/SCK</text>
</g>
<g x="107.65" id="connector56terminal" y="122.05" fill="none" width="0.699" height="0.7"/>
<line x1="0.35" x2="14.75" id="connector43pin" fill="none" y1="28.8" y2="28.8"/>
<g x="-0.35" id="connector43terminal" y="28.45" fill="none" width="0.7" height="0.7"/>
<line x1="0.35" x2="14.75" id="connector85pin" fill="none" stroke="#787878" stroke-linecap="round" y1="28.8" stroke-width="0.2469" y2="28.8"/>
<g transform="matrix(1, 0, 0, 1, 16.1494, 29.5)">
<text font-size="3.5" font-family="'DroidSans'" fill="#8C8C8C">RESET</text>
</g>
<g x="-0.35" id="connector85terminal" y="28.45" fill="none" width="0.7" height="0.7"/>
<line x1="0.35" x2="14.75" id="connector49pin" fill="none" stroke="#787878" stroke-linecap="round" y1="36" stroke-width="0.2469" y2="36"/>
<g transform="matrix(1, 0, 0, 1, 16.1494, 36.7012)">
<text font-size="3.5" font-family="'DroidSans'" fill="#8C8C8C">RESET2</text>
</g>
<rect x="-0.35" id="connector49terminal" y="35.65" fill="none" width="0.7" height="0.7"/>
<line x1="0.35" x2="14.75" id="connector58pin" fill="none" stroke="#787878" stroke-linecap="round" y1="43.2" stroke-width="0.2469" y2="43.2"/>
<g transform="matrix(1, 0, 0, 1, 16.1494, 43.9004)">
<text font-size="3.5" font-family="'DroidSans'" fill="#8C8C8C">AREF</text>
</g>
<g x="-0.35" id="connector58terminal" y="42.85" fill="none" width="0.7" height="0.7"/>
<line x1="0.35" x2="14.75" id="connector84pin" fill="none" stroke="#787878" stroke-linecap="round" y1="50.4" stroke-width="0.2469" y2="50.4"/>
<g transform="matrix(1, 0, 0, 1, 16.1494, 51.0996)">
<text font-size="3.5" font-family="'DroidSans'" fill="#8C8C8C">I</text>
</g>
<g transform="matrix(1, 0, 0, 1, 17.3013, 51.0996)">
<text font-size="3.5" font-family="'DroidSans'" fill="#8C8C8C">O</text>
</g>
<g transform="matrix(1, 0, 0, 1, 19.8989, 51.0996)">
<text font-size="3.5" font-family="'DroidSans'" fill="#8C8C8C">R</text>
</g>
<g transform="matrix(1, 0, 0, 1, 21.9634, 51.0996)">
<text font-size="3.5" font-family="'DroidSans'" fill="#8C8C8C">E</text>
</g>
<g transform="matrix(1, 0, 0, 1, 23.8105, 51.0996)">
<text font-size="3.5" font-family="'DroidSans'" fill="#8C8C8C">F</text>
</g>
<g x="-0.35" id="connector84terminal" y="50.05" fill="none" width="0.7" height="0.7"/>
<line x1="0.35" x2="14.75" id="connector0pin" fill="none" stroke="#787878" stroke-linecap="round" y1="64.8" stroke-width="0.2469" y2="64.8"/>
<g transform="matrix(1, 0, 0, 1, 16.1494, 65.5)">
<text font-size="3.5" font-family="'DroidSans'" fill="#8C8C8C">A0</text>
</g>
<g x="-0.35" id="connector0terminal" y="64.45" fill="none" width="0.7" height="0.7"/>
<line x1="0.35" x2="14.75" id="connector1pin" fill="none" stroke="#787878" stroke-linecap="round" y1="72" stroke-width="0.2469" y2="72"/>
<g transform="matrix(1, 0, 0, 1, 16.1494, 72.7012)">
<text font-size="3.5" font-family="'DroidSans'" fill="#8C8C8C">A1</text>
</g>
<g x="-0.35" id="connector1terminal" y="71.65" fill="none" width="0.7" height="0.7"/>
<line x1="0.35" x2="14.75" id="connector2pin" fill="none" stroke="#787878" stroke-linecap="round" y1="79.2" stroke-width="0.2469" y2="79.2"/>
<g transform="matrix(1, 0, 0, 1, 16.1494, 79.9004)">
<text font-size="3.5" font-family="'DroidSans'" fill="#8C8C8C">A2</text>
</g>
<g x="-0.35" id="connector2terminal" y="78.85" fill="none" width="0.7" height="0.7"/>
<line x1="0.35" x2="14.75" id="connector3pin" fill="none" stroke="#787878" stroke-linecap="round" y1="86.4" stroke-width="0.2469" y2="86.4"/>
<g transform="matrix(1, 0, 0, 1, 16.1494, 87.0996)">
<text font-size="3.5" font-family="'DroidSans'" fill="#8C8C8C">A3</text>
</g>
<g x="-0.35" id="connector3terminal" y="86.05" fill="none" width="0.7" height="0.7"/>
<line x1="0.35" x2="14.75" id="connector39pin" fill="none" y1="93.6" y2="93.6"/>
<g x="-0.35" id="connector39terminal" y="93.25" fill="none" width="0.7" height="0.699"/>
<line x1="0.35" x2="14.75" id="connector42pin" fill="none" stroke="#787878" stroke-linecap="round" y1="93.6" stroke-width="0.2469" y2="93.6"/>
<g transform="matrix(1, 0, 0, 1, 16.1494, 94.3008)">
<text font-size="3.5" font-family="'DroidSans'" fill="#8C8C8C">I</text>
</g>
<g transform="matrix(1, 0, 0, 1, 17.3013, 94.3008)">
<text font-size="3.5" font-family="'DroidSans'" fill="#8C8C8C">C</text>
</g>
<g transform="matrix(1, 0, 0, 1, 19.4121, 94.3008)">
<text font-size="3.5" font-family="'DroidSans'" fill="#8C8C8C">S</text>
</g>
<g transform="matrix(1, 0, 0, 1, 21.2285, 94.3008)">
<text font-size="3.5" font-family="'DroidSans'" fill="#8C8C8C">P</text>
</g>
<g transform="matrix(1, 0, 0, 1, 23.2451, 94.3008)">
<text font-size="3.5" font-family="'DroidSans'" fill="#8C8C8C"/>
</g>
<g transform="matrix(1, 0, 0, 1, 24.1543, 94.3008)">
<text font-size="3.5" font-family="'DroidSans'" fill="#8C8C8C">M</text>
</g>
<g transform="matrix(1, 0, 0, 1, 27.1997, 94.3008)">
<text font-size="3.5" font-family="'DroidSans'" fill="#8C8C8C">O</text>
</g>
<g transform="matrix(1, 0, 0, 1, 29.7974, 94.3008)">
<text font-size="3.5" font-family="'DroidSans'" fill="#8C8C8C">S</text>
</g>
<g transform="matrix(1, 0, 0, 1, 31.6143, 94.3008)">
<text font-size="3.5" font-family="'DroidSans'" fill="#8C8C8C">I</text>
</g>
<g x="-0.35" id="connector42terminal" y="93.25" fill="none" width="0.7" height="0.699"/>
<line x1="0.35" x2="14.75" id="connector4pin" fill="none" y1="93.6" y2="93.6"/>
<g x="-0.35" id="connector4terminal" y="93.25" fill="none" width="0.7" height="0.699"/>
<line x1="0.35" x2="14.75" id="connector59pin" fill="none" stroke="#787878" stroke-linecap="round" y1="93.6" stroke-width="0.2469" y2="93.6"/>
<g x="-0.35" id="connector59terminal" y="93.25" fill="none" width="0.7" height="0.699"/>
<line x1="0.35" x2="14.75" id="connector5pin" fill="none" y1="100.8" y2="100.8"/>
<g x="-0.35" id="connector5terminal" y="100.449" fill="none" width="0.7" height="0.701"/>
<line x1="0.35" x2="14.75" id="connector60pin" fill="none" stroke="#787878" stroke-linecap="round" y1="100.8" stroke-width="0.2469" y2="100.8"/>
<g transform="matrix(1, 0, 0, 1, 16.1494, 101.5)">
<text font-size="3.5" font-family="'DroidSans'" fill="#8C8C8C">A5/SCL</text>
</g>
<g x="-0.35" id="connector60terminal" y="100.449" fill="none" width="0.7" height="0.701"/>
<line x1="0.35" x2="14.75" id="connector91pin" fill="none" stroke="#787878" stroke-linecap="round" y1="136.8" stroke-width="0.2469" y2="136.8"/>
<g transform="matrix(1, 0, 0, 1, 16.1494, 137.5)">
<text font-size="3.5" font-family="'DroidSans'" fill="#8C8C8C">N/C</text>
</g>
<g x="-0.35" id="connector91terminal" y="136.449" fill="none" width="0.7" height="0.701"/>
<line x1="57.6" x2="57.6" id="connector88pin" fill="none" y1="165.25" y2="179.65"/>
<g x="57.25" id="connector88terminal" y="179.65" fill="none" width="0.699" height="0.699"/>
<line x1="57.6" x2="57.6" id="connector57pin" fill="none" y1="165.25" y2="179.65"/>
<g x="57.25" id="connector57terminal" y="179.65" fill="none" width="0.699" height="0.699"/>
<line x1="57.6" x2="57.6" id="connector44pin" fill="none" y1="165.25" y2="179.65"/>
<g x="57.25" id="connector44terminal" y="179.65" fill="none" width="0.699" height="0.699"/>
<line x1="57.6" x2="57.6" id="connector50pin" fill="none" y1="165.25" y2="179.65"/>
<rect x="57.25" id="connector50terminal" y="179.65" fill="none" width="0.699" height="0.699"/>
<line x1="57.6" x2="57.6" id="connector89pin" fill="none" stroke="#787878" stroke-linecap="round" y1="165.25" stroke-width="0.2469" y2="179.65"/>
<g transform="matrix(1, 0, 0, 1, 20.5669, 57.8026)">
<g>
<g transform="rotate(270)">
<g>
<g transform="matrix(1, 0, 0, 1, -106.047, 37.7329)">
<text font-size="3.5" font-family="'DroidSans'" fill="#8C8C8C">GND</text>
</g>
</g>
</g>
</g>
</g>
<g x="57.25" id="connector89terminal" y="179.65" fill="none" width="0.699" height="0.699"/>
<line x1="36" x2="36" id="connector86pin" fill="none" stroke="#787878" stroke-linecap="round" y1="0.35" stroke-width="0.2469" y2="14.75"/>
<g transform="matrix(1, 0, 0, 1, 12.9469, 5.69736)">
<g>
<g transform="rotate(270)">
<g>
<g transform="matrix(1, 0, 0, 1, -16.2968, 23.7533)">
<text font-size="3.5" font-family="'DroidSans'" fill="#8C8C8C">3V3</text>
</g>
</g>
</g>
</g>
</g>
<g x="35.65" id="connector86terminal" y="-0.35" fill="none" width="0.7" height="0.7"/>
<line x1="50.4" x2="50.4" id="connector40pin" fill="none" y1="0.35" y2="14.75"/>
<g x="50.05" id="connector40terminal" y="-0.35" fill="none" width="0.7" height="0.7"/>
<line x1="50.4" x2="50.4" id="connector46pin" fill="none" y1="0.35" y2="14.75"/>
<rect x="50.05" id="connector46terminal" y="-0.35" fill="none" width="0.7" height="0.7"/>
<line x1="50.4" x2="50.4" id="connector87pin" fill="none" stroke="#787878" stroke-linecap="round" y1="0.35" stroke-width="0.2469" y2="14.75"/>
<g transform="matrix(1, 0, 0, 1, 18.0269, 5.69736)">
<g>
<g transform="rotate(270)">
<g>
<g transform="matrix(1, 0, 0, 1, -14.369, 33.0737)">
<text font-size="3.5" font-family="'DroidSans'" fill="#8C8C8C">5V</text>
</g>
</g>
</g>
</g>
</g>
<g x="50.05" id="connector87terminal" y="-0.35" fill="none" width="0.7" height="0.7"/>
<line x1="64.8" x2="64.8" id="connector90pin" fill="none" stroke="#787878" stroke-linecap="round" y1="0.35" stroke-width="0.2469" y2="14.75"/>
<g transform="matrix(1, 0, 0, 1, 23.1069, 5.69736)">
<g>
<g transform="rotate(270)">
<g>
<g transform="matrix(1, 0, 0, 1, -16.1776, 42.3922)">
<text font-size="3.5" font-family="'DroidSans'" fill="#8C8C8C">VIN</text>
</g>
</g>
</g>
</g>
</g>
<g x="64.449" id="connector90terminal" y="-0.35" fill="none" width="0.701" height="0.7"/>
<g transform="matrix(1, 0, 0, 1, 46.7862, 81.3828)">
<text font-size="4.25" font-family="'DroidSans'" id="label">Arduino</text>
</g>
<g transform="matrix(1, 0, 0, 1, 50.4893, 85.916)">
<text font-size="4.25" font-family="'DroidSans'" id="label_1_">Uno</text>
</g>
<g transform="matrix(1, 0, 0, 1, 48.5928, 90.4512)">
<text font-size="4.25" font-family="'DroidSans'" id="label_2_">(Rev3)</text>
</g>
<g transform="matrix(1, 0, 0, 1, 50.1416, 94.9844)">
<text font-size="4.25" font-family="'DroidSans'">I</text>
</g>
<g transform="matrix(1, 0, 0, 1, 51.5401, 94.9844)">
<text font-size="4.25" font-family="'DroidSans'">C</text>
</g>
<g transform="matrix(1, 0, 0, 1, 54.1031, 94.9844)">
<text font-size="4.25" font-family="'DroidSans'">S</text>
</g>
<g transform="matrix(1, 0, 0, 1, 56.3086, 94.9844)">
<text font-size="4.25" font-family="'DroidSans'">P</text>
</g>
</g>
</g></g><g partID='854292150'><g transform='translate(15.121,11.3613)' ><g transform='matrix(0,1,-1,0,0,0)'  ><g id="schematic">
<path d="M29.15,0.36c3.977,0,7.2,3.223,7.201,7.199c0.001,3.976,-3.223,7.2,-7.199,7.201c0,0,-0.001,0,-0.002,0l-14.4,0c-3.977,0.001,-7.2,-3.223,-7.201,-7.199c0,-3.977,3.223,-7.2,7.199,-7.201c0.001,0,0.001,0,0.002,0L29.15,0.36z" fill="#FFFFFF" stroke="#000000" stroke-width="0.9"/>
<line x1="17.63" x2="17.63" fill="none" stroke="#000000" stroke-linecap="round" y1="0.36" stroke-width="0.5" y2="1.8"/>
<path d="M17.63,1.8c0,0.795,0.646,1.44,1.44,1.44" fill="none" stroke="#000000" stroke-width="0.5"/>
<line x1="19.07" x2="25.55" fill="none" stroke="#000000" stroke-linecap="round" y1="3.24" stroke-width="0.5" y2="3.24"/>
<path d="M25.55,3.24c0.597,0,1.081,0.483,1.081,1.08c0,0.596,-0.483,1.08,-1.08,1.08c0,0,0,0,-0.001,0" fill="none" stroke="#000000" stroke-width="0.5"/>
<line x1="18.35" x2="25.55" fill="none" stroke="#000000" stroke-linecap="round" y1="5.4" stroke-width="0.5" y2="5.4"/>
<path d="M18.35,7.56c-0.597,0,-1.08,-0.483,-1.08,-1.08s0.483,-1.08,1.08,-1.08l0,0" fill="none" stroke="#000000" stroke-width="0.5"/>
<line x1="18.35" x2="25.55" fill="none" stroke="#000000" stroke-linecap="round" y1="7.56" stroke-width="0.5" y2="7.56"/>
<path d="M25.55,7.56c0.597,0,1.081,0.483,1.081,1.079c0.001,0.597,-0.482,1.081,-1.079,1.081c-0.001,0,-0.001,0,-0.002,0" fill="none" stroke="#000000" stroke-width="0.5"/>
<line x1="18.35" x2="25.55" fill="none" stroke="#000000" stroke-linecap="round" y1="9.72" stroke-width="0.5" y2="9.72"/>
<path d="M18.35,11.88c-0.597,0,-1.08,-0.484,-1.08,-1.08c0,-0.597,0.483,-1.08,1.08,-1.08l0,0" fill="none" stroke="#000000" stroke-width="0.5"/>
<line x1="18.35" x2="24.83" fill="none" stroke="#000000" stroke-linecap="round" y1="11.88" stroke-width="0.5" y2="11.88"/>
<path d="M26.27,13.32c0,-0.795,-0.645,-1.439,-1.44,-1.439l0,0" fill="none" stroke="#000000" stroke-width="0.5"/>
<line x1="26.27" x2="26.27" fill="none" stroke="#000000" stroke-linecap="round" y1="13.32" stroke-width="0.5" y2="14.76"/>
<line x1="0.35" x2="7.55" id="connector0pin" fill="none" stroke="#787878" stroke-linecap="round" y1="7.56" stroke-width="0.75" y2="7.56"/>
<g x="0.35" id="connector0terminal" y="7.56" fill="none" width="0" height="0"/>
<g transform="matrix(1, 0, 0, 1, 3.2615, 6.5103)">
<text font-size="2.5" font-family="'DroidSans'" fill="#8C8C8C">1</text>
</g>
<line x1="43.551" x2="36.35" id="connector1pin" fill="none" stroke="#787878" stroke-linecap="round" y1="7.56" stroke-width="0.75" y2="7.56"/>
<g x="43.551" id="connector1terminal" y="7.56" fill="none" width="0" height="0"/>
<g transform="matrix(1, 0, 0, 1, 39.2615, 6.5103)">
<text font-size="2.5" font-family="'DroidSans'" fill="#8C8C8C">2</text>
</g>
</g>
</g></g></g><g partID='854295240'><g transform='translate(211.862,173.928)' ><g transform='matrix(-1,0,0,-1,0,0)'  ><g id="schematic">
<g>
<path d="M13.5,14.966L9.9,14.966c-0.193,0,-0.35,-0.156,-0.35,-0.35s0.156,-0.35,0.35,-0.35L13.5,14.266c0.193,0,0.35,0.156,0.35,0.35S13.694,14.966,13.5,14.966z"/>
</g>
<g>
<path d="M9.9,14.966L6.3,14.966c-0.193,0,-0.35,-0.156,-0.35,-0.35s0.157,-0.35,0.35,-0.35l3.6,0c0.193,0,0.35,0.156,0.35,0.35S10.093,14.966,9.9,14.966z"/>
</g>
<g>
<polygon fill="#FFFFFF" points="9.9,14.616,6.3,7.416,9.9,7.416,13.5,7.416"/>
<path d="M9.9,15.398L5.734,7.066l8.333,0L9.9,15.398zM6.866,7.766L9.9,13.834l3.034,-6.068L6.866,7.766z"/>
</g>
<g>
<path d="M9.9,14.841c-0.124,0,-0.225,-0.101,-0.225,-0.225l0,-7.2c0,-0.124,0.101,-0.225,0.225,-0.225s0.225,0.101,0.225,0.225l0,7.2C10.124,14.74,10.024,14.841,9.9,14.841z"/>
</g>
<g>
<path d="M1.8,12.141c-0.058,0,-0.115,-0.021,-0.159,-0.065c-0.088,-0.088,-0.088,-0.23,0,-0.318l2.34,-2.341c0.088,-0.088,0.23,-0.088,0.318,0s0.088,0.23,0,0.318l-2.34,2.341C1.915,12.12,1.858,12.141,1.8,12.141z"/>
</g>
<g>
<path d="M2.16,15.381c-0.058,0,-0.115,-0.021,-0.159,-0.065c-0.088,-0.088,-0.088,-0.23,0,-0.318l2.34,-2.34c0.088,-0.088,0.23,-0.088,0.318,0s0.088,0.23,0,0.318l-2.34,2.34C2.276,15.359,2.218,15.381,2.16,15.381z"/>
</g>
<g id="connector0pin">
<path d="M9.9,22.166c-0.193,0,-0.35,-0.156,-0.35,-0.35l0,-7.2c0,-0.193,0.156,-0.35,0.35,-0.35s0.35,0.156,0.35,0.35l0,7.2C10.249,22.01,10.093,22.166,9.9,22.166z" fill="#787878"/>
</g>
<g id="connector0terminal">
<rect x="9.9" y="21.816" fill="none" width="0.001" height="0.001"/>
</g>
<g transform="matrix(1, 0, 0, 1, 3.429, 6.4262)">
<g>
<g transform="rotate(270)">
<g>
<g enable-background="new    ">
<path d="M-11.647,5.54l-0.891,0L-12.538,5.388l0.342,-0.372c0.049,-0.053,0.093,-0.101,0.131,-0.145s0.071,-0.086,0.099,-0.128c0.026,-0.042,0.047,-0.084,0.062,-0.125c0.015,-0.043,0.021,-0.088,0.021,-0.138c0,-0.038,-0.005,-0.072,-0.017,-0.102s-0.027,-0.054,-0.047,-0.075c-0.021,-0.02,-0.045,-0.035,-0.073,-0.046s-0.06,-0.016,-0.094,-0.016c-0.062,0,-0.118,0.013,-0.167,0.038c-0.051,0.024,-0.098,0.057,-0.143,0.096l-0.1,-0.116c0.025,-0.023,0.055,-0.046,0.084,-0.065c0.029,-0.021,0.063,-0.039,0.097,-0.054s0.071,-0.026,0.109,-0.036c0.038,-0.008,0.079,-0.013,0.121,-0.013c0.063,0,0.119,0.009,0.169,0.026c0.051,0.018,0.094,0.043,0.129,0.076c0.035,0.032,0.063,0.072,0.082,0.119c0.019,0.048,0.028,0.101,0.028,0.16c0,0.056,-0.009,0.108,-0.026,0.158c-0.017,0.05,-0.041,0.1,-0.07,0.148c-0.031,0.048,-0.066,0.097,-0.109,0.146c-0.041,0.049,-0.087,0.1,-0.136,0.152L-12.32,5.37l0,0.008l0.673,0L-11.647,5.54z" fill="#787878"/>
</g>
</g>
</g>
</g>
</g>
<g id="connector1pin">
<path d="M9.9,7.766c-0.193,0,-0.35,-0.157,-0.35,-0.35l0,-7.2c0,-0.193,0.156,-0.35,0.35,-0.35s0.35,0.157,0.35,0.35l0,7.2C10.249,7.609,10.093,7.766,9.9,7.766z" fill="#787878"/>
</g>
<g id="connector1terminal">
<polygon fill="none" points="9.9,0.216,9.901,0.216,9.901,0.216"/>
</g>
<g transform="matrix(1, 0, 0, 1, 3.429, 1.3462)">
<g>
<g transform="rotate(270)">
<g>
<g enable-background="new    ">
<path d="M-2.616,5.54l-0.172,0L-2.788,4.648c0,-0.028,0,-0.058,0,-0.09s0.001,-0.063,0.002,-0.095c0.001,-0.032,0.002,-0.063,0.003,-0.092c0.001,-0.028,0.002,-0.054,0.002,-0.076c-0.011,0.012,-0.021,0.021,-0.029,0.03s-0.017,0.017,-0.026,0.024s-0.018,0.016,-0.028,0.025c-0.01,0.008,-0.021,0.019,-0.035,0.03l-0.145,0.118l-0.094,-0.12l0.374,-0.292l0.146,0L-2.618,5.54z" fill="#787878"/>
</g>
</g>
</g>
</g>
</g>
<g>
<path d="M0.18,13.536l1.08,-2.521l1.44,1.438L0.18,13.536z"/>
</g>
<g>
<path d="M0.54,16.776l1.08,-2.521l1.438,1.438L0.54,16.776z"/>
</g>
</g>
</g></g></g><g partID='854295300'><g transform='translate(195.111,133.607)' ><g transform='matrix(-1,0,0,-1,0,0)'  ><g xmlns="http://www.w3.org/2000/svg" id="schematic">
<line class="other" x1="7.55002" x2="8.63003" xmlns="http://www.w3.org/2000/svg" stroke="#000000" stroke-linecap="round" y1="3.096" y2="0.216" stroke-width="0.432002"/>
<line class="other" x1="8.63003" x2="10.43" xmlns="http://www.w3.org/2000/svg" stroke="#000000" stroke-linecap="round" y1="0.216" y2="5.976" stroke-width="0.432002"/>
<line class="other" x1="10.43" x2="12.23" xmlns="http://www.w3.org/2000/svg" stroke="#000000" stroke-linecap="round" y1="5.976" y2="0.216" stroke-width="0.432002"/>
<line class="other" x1="12.23" x2="14.03" xmlns="http://www.w3.org/2000/svg" stroke="#000000" stroke-linecap="round" y1="0.216" y2="5.976" stroke-width="0.432002"/>
<line class="other" x1="14.03" x2="15.8301" xmlns="http://www.w3.org/2000/svg" stroke="#000000" stroke-linecap="round" y1="5.976" y2="0.216" stroke-width="0.432002"/>
<line class="other" x1="15.8301" x2="17.6301" xmlns="http://www.w3.org/2000/svg" stroke="#000000" stroke-linecap="round" y1="0.216" y2="5.976" stroke-width="0.432002"/>
<line class="other" x1="17.6301" x2="19.4301" xmlns="http://www.w3.org/2000/svg" stroke="#000000" stroke-linecap="round" y1="5.976" y2="0.216" stroke-width="0.432002"/>
<line class="other" x1="19.4301" x2="21.2301" xmlns="http://www.w3.org/2000/svg" stroke="#000000" stroke-linecap="round" y1="0.216" y2="5.976" stroke-width="0.432002"/>
<line class="other" x1="21.2301" x2="21.9501" xmlns="http://www.w3.org/2000/svg" stroke="#000000" stroke-linecap="round" y1="5.976" y2="3.096" stroke-width="0.432002"/>
<line class="pin" x1="29.1502" x2="21.9501" xmlns="http://www.w3.org/2000/svg" connectorname="2" id="connector1pin" stroke="#787878" stroke-linecap="round" y1="3.096" y2="3.096" stroke-width="0.700001"/>
<g class="terminal" xmlns="http://www.w3.org/2000/svg" x="29.1502" id="connector1terminal" y="3.096" fill="none" stroke="none" width="0.000283466" stroke-width="0" height="0.000283465"/>
<text class="text" xmlns="http://www.w3.org/2000/svg" font-size="2.50001" font-family="'Droid Sans'" x="25.5501" fill="#8c8c8c" y="2.046" stroke="none" stroke-width="0" text-anchor="middle">2</text>
<line class="pin" x1="0.350001" x2="7.55002" xmlns="http://www.w3.org/2000/svg" connectorname="1" id="connector0pin" stroke="#787878" stroke-linecap="round" y1="3.096" y2="3.096" stroke-width="0.700001"/>
<g class="terminal" xmlns="http://www.w3.org/2000/svg" x="0.350001" id="connector0terminal" y="3.096" fill="none" stroke="none" width="0.000283466" stroke-width="0" height="0.000283465"/>
<text class="text" xmlns="http://www.w3.org/2000/svg" font-size="2.50001" font-family="'Droid Sans'" x="3.95001" fill="#8c8c8c" y="2.046" stroke="none" stroke-width="0" text-anchor="middle">1</text>
</g>
</g></g></g><g partID='854294840'><line stroke-linecap='round' stroke='#404040' x1='94.1362' y1='1.06405' x2='7.5964' y2='1.06405' stroke-width='0.699998' /></g><g partID='854295190'><line stroke-linecap='round' stroke='#404040' x1='7.5964' y1='1.06405' x2='7.561' y2='15.3113' stroke-width='0.699998' /></g><g partID='854294800'><line stroke-linecap='round' stroke='#404040' x1='93.9615' y1='8.11126' x2='94.1362' y2='1.06405' stroke-width='0.699998' /></g><g partID='854294890'><line stroke-linecap='round' stroke='#404040' x1='7.561' y1='116.111' x2='7.561' y2='51.3117' stroke-width='0.699998' /></g><circle  fill="black" cx="7.561" cy="116.111" r="1.44" stroke-width="0" stroke="none" /><g partID='854294970'><line stroke-linecap='round' stroke='#404040' x1='7.561' y1='116.111' x2='7.5964' y2='72.9933' stroke-width='0.699998' /></g><circle  fill="black" cx="7.561" cy="116.111" r="1.44" stroke-width="0" stroke="none" /><g partID='854295030'><line stroke-linecap='round' stroke='#404040' x1='7.5964' y1='72.9933' x2='43.5615' y2='72.9113' stroke-width='0.699998' /></g><g partID='854295140'><line stroke-linecap='round' stroke='#404040' x1='7.5964' y1='188.005' x2='7.561' y2='144.911' stroke-width='0.699998' /></g><g partID='854295100'><line stroke-linecap='round' stroke='#404040' x1='101.161' y1='188.111' x2='7.5964' y2='188.005' stroke-width='0.699998' /></g><circle  fill="black" cx="101.161" cy="188.111" r="1.44" stroke-width="0" stroke="none" /><g partID='854296100'><line stroke-linecap='round' stroke='#404040' x1='151.561' y1='130.511' x2='165.961' y2='130.511' stroke-width='0.699998' /></g><g partID='854296140'><line stroke-linecap='round' stroke='#404040' x1='194.761' y1='130.511' x2='202.03' y2='130.686' stroke-width='0.699998' /></g><g partID='854296180'><line stroke-linecap='round' stroke='#404040' x1='202.03' y1='130.686' x2='201.961' y2='152.111' stroke-width='0.699998' /></g><g partID='854296230'><line stroke-linecap='round' stroke='#404040' x1='201.961' y1='173.712' x2='202.03' y2='188.005' stroke-width='0.699998' /></g><g partID='854296290'><line stroke-linecap='round' stroke='#404040' x1='202.03' y1='188.005' x2='101.161' y2='188.111' stroke-width='0.699998' /></g><circle  fill="black" cx="101.161" cy="188.111" r="1.44" stroke-width="0" stroke="none" /><g partID='854206710' id='partLabel'><g transform='translate(126.335,11.5477)' ><g font-size='5' font-style='normal' font-weight='normal' fill='#000000' font-family="'DroidSans'" id='schematicLabel' fill-opacity='1' stroke='none' ><text x='0' y='3.75'>M1</text></g></g></g><g partID='854216030' id='partLabel'><g transform='translate(17.0953,110.21)' ><g transform='matrix(1,0,0,1,0,0)'  ><g font-size='5' font-style='normal' font-weight='normal' fill='#000000' font-family="'DroidSans'" id='schematicLabel' fill-opacity='1' stroke='none' ><text x='0' y='3.75'>1k&#x3a9;</text><text x='0' y='8.75'>R2</text></g></g></g></g><g partID='854292150' id='partLabel'><g transform='translate(21.6432,20.5254)' ><g font-size='5' font-style='normal' font-weight='normal' fill='#000000' font-family="'DroidSans'" id='schematicLabel' fill-opacity='1' stroke='none' ><text x='0' y='3.75'>R1</text></g></g></g><g partID='854295240' id='partLabel'><g transform='translate(167.497,142.459)' ><g font-size='5' font-style='normal' font-weight='normal' fill='#000000' font-family="'DroidSans'" id='schematicLabel' fill-opacity='1' stroke='none' ><text x='0' y='3.75'>LED1</text><text x='0' y='8.75'>Red (633nm)</text></g></g></g><g partID='854295300' id='partLabel'><g transform='translate(185.603,109.398)' ><g font-size='5' font-style='normal' font-weight='normal' fill='#000000' font-family="'DroidSans'" id='schematicLabel' fill-opacity='1' stroke='none' ><text x='0' y='3.75'>R3</text><text x='0' y='8.75'>220&#x3a9;</text></g></g></g></svg>