<?xml version='1.0' encoding='UTF-8' standalone='no'?>
<!-- Created with Fritzing (http://www.fritzing.org/) -->
<svg xmlns:svg='http://www.w3.org/2000/svg' xmlns='http://www.w3.org/2000/svg' version='1.2' baseProfile='tiny' x='0in' y='0in' width='2.61915in' height='2.59236in' viewBox='0 0 188.579 186.65' >
<g partID='854206710'><g transform='translate(0,5.6)' ><g id="schematic">
<rect x="14.85" stroke-width="0.3175" y="14.85" stroke="#000000" stroke-linecap="round" height="150.3" fill="#FFFFFF" width="78.3"/>
<line y1="28.8" y2="28.8" stroke-width="0.2469" x1="93.25" x2="107.65" stroke="#787878" stroke-linecap="round" fill="none" id="connector61pin"/>
<g transform="matrix(1, 0, 0, 1, 82.2432, 29.5)">
<text font-family="'DroidSans'" fill="#8C8C8C" font-size="3.5">D0/RX</text>
</g>
<g x="107.65" y="28.45" height="0.7" fill="none" width="0.699" id="connector61terminal"/>
<line y1="36" y2="36" stroke-width="0.2469" x1="93.25" x2="107.65" stroke="#787878" stroke-linecap="round" fill="none" id="connector62pin"/>
<g transform="matrix(1, 0, 0, 1, 82.4912, 36.7012)">
<text font-family="'DroidSans'" fill="#8C8C8C" font-size="3.5">D1/TX</text>
</g>
<g x="107.65" y="35.65" height="0.7" fill="none" width="0.699" id="connector62terminal"/>
<line y1="43.2" y2="43.2" stroke-width="0.2469" x1="93.25" x2="107.65" stroke="#787878" stroke-linecap="round" fill="none" id="connector63pin"/>
<g transform="matrix(1, 0, 0, 1, 87.5283, 43.9004)">
<text font-family="'DroidSans'" fill="#8C8C8C" font-size="3.5">D2</text>
</g>
<g x="107.65" y="42.85" height="0.7" fill="none" width="0.699" id="connector63terminal"/>
<line y1="50.4" y2="50.4" stroke-width="0.2469" x1="93.25" x2="107.65" stroke="#787878" stroke-linecap="round" fill="none" id="connector64pin"/>
<g transform="matrix(1, 0, 0, 1, 78.4639, 51.0996)">
<text font-family="'DroidSans'" fill="#8C8C8C" font-size="3.5">D3 PWM</text>
</g>
<g x="107.65" y="50.05" height="0.7" fill="none" width="0.699" id="connector64terminal"/>
<line y1="57.6" y2="57.6" stroke-width="0.2469" x1="93.25" x2="107.65" stroke="#787878" stroke-linecap="round" fill="none" id="connector65pin"/>
<g transform="matrix(1, 0, 0, 1, 87.5283, 58.3008)">
<text font-family="'DroidSans'" fill="#8C8C8C" font-size="3.5">D4</text>
</g>
<g x="107.65" y="57.25" height="0.7" fill="none" width="0.699" id="connector65terminal"/>
<line y1="64.8" y2="64.8" stroke-width="0.2469" x1="93.25" x2="107.65" stroke="#787878" stroke-linecap="round" fill="none" id="connector66pin"/>
<g transform="matrix(1, 0, 0, 1, 78.4639, 65.5)">
<text font-family="'DroidSans'" fill="#8C8C8C" font-size="3.5">D5 PWM</text>
</g>
<g x="107.65" y="64.45" height="0.7" fill="none" width="0.699" id="connector66terminal"/>
<line y1="72" y2="72" stroke-width="0.2469" x1="93.25" x2="107.65" stroke="#787878" stroke-linecap="round" fill="none" id="connector67pin"/>
<g transform="matrix(1, 0, 0, 1, 78.4639, 72.7012)">
<text font-family="'DroidSans'" fill="#8C8C8C" font-size="3.5">D6 PWM</text>
</g>
<g x="107.65" y="71.65" height="0.7" fill="none" width="0.699" id="connector67terminal"/>
<line y1="79.2" y2="79.2" stroke-width="0.2469" x1="93.25" x2="107.65" stroke="#787878" stroke-linecap="round" fill="none" id="connector68pin"/>
<g transform="matrix(1, 0, 0, 1, 87.5283, 79.9004)">
<text font-family="'DroidSans'" fill="#8C8C8C" font-size="3.5">D7</text>
</g>
<g x="107.65" y="78.85" height="0.7" fill="none" width="0.699" id="connector68terminal"/>
<line y1="86.4" y2="86.4" stroke-width="0.2469" x1="93.25" x2="107.65" stroke="#787878" stroke-linecap="round" fill="none" id="connector51pin"/>
<g transform="matrix(1, 0, 0, 1, 87.5283, 87.0996)">
<text font-family="'DroidSans'" fill="#8C8C8C" font-size="3.5">D8</text>
</g>
<g x="107.65" y="86.05" height="0.7" fill="none" width="0.699" id="connector51terminal"/>
<line y1="93.6" y2="93.6" stroke-width="0.2469" x1="93.25" x2="107.65" stroke="#787878" stroke-linecap="round" fill="none" id="connector52pin"/>
<g transform="matrix(1, 0, 0, 1, 78.4639, 94.3008)">
<text font-family="'DroidSans'" fill="#8C8C8C" font-size="3.5">D9 PWM</text>
</g>
<g x="107.65" y="93.25" height="0.699" fill="none" width="0.699" id="connector52terminal"/>
<line y1="100.8" y2="100.8" stroke-width="0.2469" x1="93.25" x2="107.65" stroke="#787878" stroke-linecap="round" fill="none" id="connector53pin"/>
<g transform="matrix(1, 0, 0, 1, 71.5967, 101.5)">
<text font-family="'DroidSans'" fill="#8C8C8C" font-size="3.5">D10 PWM/SS</text>
</g>
<g x="107.65" y="100.449" height="0.701" fill="none" width="0.699" id="connector53terminal"/>
<line y1="108" y2="108" stroke-width="0.2469" x1="93.25" x2="107.65" stroke="#787878" stroke-linecap="round" fill="none" id="connector54pin"/>
<g transform="matrix(1, 0, 0, 1, 66.585, 108.701)">
<text font-family="'DroidSans'" fill="#8C8C8C" font-size="3.5">D11 PWM/MOSI</text>
</g>
<g x="107.65" y="107.65" height="0.699" fill="none" width="0.699" id="connector54terminal"/>
<line y1="115.2" y2="115.2" stroke-width="0.2469" x1="93.25" x2="107.65" stroke="#787878" stroke-linecap="round" fill="none" id="connector55pin"/>
<g transform="matrix(1, 0, 0, 1, 75.6494, 115.9)">
<text font-family="'DroidSans'" fill="#8C8C8C" font-size="3.5">D12/MISO</text>
</g>
<g x="107.65" y="114.85" height="0.7" fill="none" width="0.699" id="connector55terminal"/>
<line y1="122.4" y2="122.4" x1="93.25" x2="107.65" fill="none" id="connector41pin"/>
<rect x="107.65" y="122.05" height="0.7" fill="none" width="0.699" id="connector41terminal"/>
<line y1="122.4" y2="122.4" stroke-width="0.2469" x1="93.25" x2="107.65" stroke="#787878" stroke-linecap="round" fill="none" id="connector56pin"/>
<g transform="matrix(1, 0, 0, 1, 78.3408, 123.1)">
<text font-family="'DroidSans'" fill="#8C8C8C" font-size="3.5">D13/SCK</text>
</g>
<g x="107.65" y="122.05" height="0.7" fill="none" width="0.699" id="connector56terminal"/>
<line y1="28.8" y2="28.8" x1="0.35" x2="14.75" fill="none" id="connector43pin"/>
<g x="-0.35" y="28.45" height="0.7" fill="none" width="0.7" id="connector43terminal"/>
<line y1="28.8" y2="28.8" stroke-width="0.2469" x1="0.35" x2="14.75" stroke="#787878" stroke-linecap="round" fill="none" id="connector85pin"/>
<g transform="matrix(1, 0, 0, 1, 16.1494, 29.5)">
<text font-family="'DroidSans'" fill="#8C8C8C" font-size="3.5">RESET</text>
</g>
<g x="-0.35" y="28.45" height="0.7" fill="none" width="0.7" id="connector85terminal"/>
<line y1="36" y2="36" stroke-width="0.2469" x1="0.35" x2="14.75" stroke="#787878" stroke-linecap="round" fill="none" id="connector49pin"/>
<g transform="matrix(1, 0, 0, 1, 16.1494, 36.7012)">
<text font-family="'DroidSans'" fill="#8C8C8C" font-size="3.5">RESET2</text>
</g>
<rect x="-0.35" y="35.65" height="0.7" fill="none" width="0.7" id="connector49terminal"/>
<line y1="43.2" y2="43.2" stroke-width="0.2469" x1="0.35" x2="14.75" stroke="#787878" stroke-linecap="round" fill="none" id="connector58pin"/>
<g transform="matrix(1, 0, 0, 1, 16.1494, 43.9004)">
<text font-family="'DroidSans'" fill="#8C8C8C" font-size="3.5">AREF</text>
</g>
<g x="-0.35" y="42.85" height="0.7" fill="none" width="0.7" id="connector58terminal"/>
<line y1="50.4" y2="50.4" stroke-width="0.2469" x1="0.35" x2="14.75" stroke="#787878" stroke-linecap="round" fill="none" id="connector84pin"/>
<g transform="matrix(1, 0, 0, 1, 16.1494, 51.0996)">
<text font-family="'DroidSans'" fill="#8C8C8C" font-size="3.5">I</text>
</g>
<g transform="matrix(1, 0, 0, 1, 17.3013, 51.0996)">
<text font-family="'DroidSans'" fill="#8C8C8C" font-size="3.5">O</text>
</g>
<g transform="matrix(1, 0, 0, 1, 19.8989, 51.0996)">
<text font-family="'DroidSans'" fill="#8C8C8C" font-size="3.5">R</text>
</g>
<g transform="matrix(1, 0, 0, 1, 21.9634, 51.0996)">
<text font-family="'DroidSans'" fill="#8C8C8C" font-size="3.5">E</text>
</g>
<g transform="matrix(1, 0, 0, 1, 23.8105, 51.0996)">
<text font-family="'DroidSans'" fill="#8C8C8C" font-size="3.5">F</text>
</g>
<g x="-0.35" y="50.05" height="0.7" fill="none" width="0.7" id="connector84terminal"/>
<line y1="64.8" y2="64.8" stroke-width="0.2469" x1="0.35" x2="14.75" stroke="#787878" stroke-linecap="round" fill="none" id="connector0pin"/>
<g transform="matrix(1, 0, 0, 1, 16.1494, 65.5)">
<text font-family="'DroidSans'" fill="#8C8C8C" font-size="3.5">A0</text>
</g>
<g x="-0.35" y="64.45" height="0.7" fill="none" width="0.7" id="connector0terminal"/>
<line y1="72" y2="72" stroke-width="0.2469" x1="0.35" x2="14.75" stroke="#787878" stroke-linecap="round" fill="none" id="connector1pin"/>
<g transform="matrix(1, 0, 0, 1, 16.1494, 72.7012)">
<text font-family="'DroidSans'" fill="#8C8C8C" font-size="3.5">A1</text>
</g>
<g x="-0.35" y="71.65" height="0.7" fill="none" width="0.7" id="connector1terminal"/>
<line y1="79.2" y2="79.2" stroke-width="0.2469" x1="0.35" x2="14.75" stroke="#787878" stroke-linecap="round" fill="none" id="connector2pin"/>
<g transform="matrix(1, 0, 0, 1, 16.1494, 79.9004)">
<text font-family="'DroidSans'" fill="#8C8C8C" font-size="3.5">A2</text>
</g>
<g x="-0.35" y="78.85" height="0.7" fill="none" width="0.7" id="connector2terminal"/>
<line y1="86.4" y2="86.4" stroke-width="0.2469" x1="0.35" x2="14.75" stroke="#787878" stroke-linecap="round" fill="none" id="connector3pin"/>
<g transform="matrix(1, 0, 0, 1, 16.1494, 87.0996)">
<text font-family="'DroidSans'" fill="#8C8C8C" font-size="3.5">A3</text>
</g>
<g x="-0.35" y="86.05" height="0.7" fill="none" width="0.7" id="connector3terminal"/>
<line y1="93.6" y2="93.6" x1="0.35" x2="14.75" fill="none" id="connector39pin"/>
<g x="-0.35" y="93.25" height="0.699" fill="none" width="0.7" id="connector39terminal"/>
<line y1="93.6" y2="93.6" stroke-width="0.2469" x1="0.35" x2="14.75" stroke="#787878" stroke-linecap="round" fill="none" id="connector42pin"/>
<g transform="matrix(1, 0, 0, 1, 16.1494, 94.3008)">
<text font-family="'DroidSans'" fill="#8C8C8C" font-size="3.5">I</text>
</g>
<g transform="matrix(1, 0, 0, 1, 17.3013, 94.3008)">
<text font-family="'DroidSans'" fill="#8C8C8C" font-size="3.5">C</text>
</g>
<g transform="matrix(1, 0, 0, 1, 19.4121, 94.3008)">
<text font-family="'DroidSans'" fill="#8C8C8C" font-size="3.5">S</text>
</g>
<g transform="matrix(1, 0, 0, 1, 21.2285, 94.3008)">
<text font-family="'DroidSans'" fill="#8C8C8C" font-size="3.5">P</text>
</g>
<g transform="matrix(1, 0, 0, 1, 23.2451, 94.3008)">
<text font-family="'DroidSans'" fill="#8C8C8C" font-size="3.5"/>
</g>
<g transform="matrix(1, 0, 0, 1, 24.1543, 94.3008)">
<text font-family="'DroidSans'" fill="#8C8C8C" font-size="3.5">M</text>
</g>
<g transform="matrix(1, 0, 0, 1, 27.1997, 94.3008)">
<text font-family="'DroidSans'" fill="#8C8C8C" font-size="3.5">O</text>
</g>
<g transform="matrix(1, 0, 0, 1, 29.7974, 94.3008)">
<text font-family="'DroidSans'" fill="#8C8C8C" font-size="3.5">S</text>
</g>
<g transform="matrix(1, 0, 0, 1, 31.6143, 94.3008)">
<text font-family="'DroidSans'" fill="#8C8C8C" font-size="3.5">I</text>
</g>
<g x="-0.35" y="93.25" height="0.699" fill="none" width="0.7" id="connector42terminal"/>
<line y1="93.6" y2="93.6" x1="0.35" x2="14.75" fill="none" id="connector4pin"/>
<g x="-0.35" y="93.25" height="0.699" fill="none" width="0.7" id="connector4terminal"/>
<line y1="93.6" y2="93.6" stroke-width="0.2469" x1="0.35" x2="14.75" stroke="#787878" stroke-linecap="round" fill="none" id="connector59pin"/>
<g x="-0.35" y="93.25" height="0.699" fill="none" width="0.7" id="connector59terminal"/>
<line y1="100.8" y2="100.8" x1="0.35" x2="14.75" fill="none" id="connector5pin"/>
<g x="-0.35" y="100.449" height="0.701" fill="none" width="0.7" id="connector5terminal"/>
<line y1="100.8" y2="100.8" stroke-width="0.2469" x1="0.35" x2="14.75" stroke="#787878" stroke-linecap="round" fill="none" id="connector60pin"/>
<g transform="matrix(1, 0, 0, 1, 16.1494, 101.5)">
<text font-family="'DroidSans'" fill="#8C8C8C" font-size="3.5">A5/SCL</text>
</g>
<g x="-0.35" y="100.449" height="0.701" fill="none" width="0.7" id="connector60terminal"/>
<line y1="136.8" y2="136.8" stroke-width="0.2469" x1="0.35" x2="14.75" stroke="#787878" stroke-linecap="round" fill="none" id="connector91pin"/>
<g transform="matrix(1, 0, 0, 1, 16.1494, 137.5)">
<text font-family="'DroidSans'" fill="#8C8C8C" font-size="3.5">N/C</text>
</g>
<g x="-0.35" y="136.449" height="0.701" fill="none" width="0.7" id="connector91terminal"/>
<line y1="165.25" y2="179.65" x1="57.6" x2="57.6" fill="none" id="connector88pin"/>
<g x="57.25" y="179.65" height="0.699" fill="none" width="0.699" id="connector88terminal"/>
<line y1="165.25" y2="179.65" x1="57.6" x2="57.6" fill="none" id="connector57pin"/>
<g x="57.25" y="179.65" height="0.699" fill="none" width="0.699" id="connector57terminal"/>
<line y1="165.25" y2="179.65" x1="57.6" x2="57.6" fill="none" id="connector44pin"/>
<g x="57.25" y="179.65" height="0.699" fill="none" width="0.699" id="connector44terminal"/>
<line y1="165.25" y2="179.65" x1="57.6" x2="57.6" fill="none" id="connector50pin"/>
<rect x="57.25" y="179.65" height="0.699" fill="none" width="0.699" id="connector50terminal"/>
<line y1="165.25" y2="179.65" stroke-width="0.2469" x1="57.6" x2="57.6" stroke="#787878" stroke-linecap="round" fill="none" id="connector89pin"/>
<g transform="matrix(1, 0, 0, 1, 20.5669, 57.8026)">
<g>
<g transform="rotate(270)">
<g>
<g transform="matrix(1, 0, 0, 1, -106.047, 37.7329)">
<text font-family="'DroidSans'" fill="#8C8C8C" font-size="3.5">GND</text>
</g>
</g>
</g>
</g>
</g>
<g x="57.25" y="179.65" height="0.699" fill="none" width="0.699" id="connector89terminal"/>
<line y1="0.35" y2="14.75" stroke-width="0.2469" x1="36" x2="36" stroke="#787878" stroke-linecap="round" fill="none" id="connector86pin"/>
<g transform="matrix(1, 0, 0, 1, 12.9469, 5.69736)">
<g>
<g transform="rotate(270)">
<g>
<g transform="matrix(1, 0, 0, 1, -16.2968, 23.7533)">
<text font-family="'DroidSans'" fill="#8C8C8C" font-size="3.5">3V3</text>
</g>
</g>
</g>
</g>
</g>
<g x="35.65" y="-0.35" height="0.7" fill="none" width="0.7" id="connector86terminal"/>
<line y1="0.35" y2="14.75" x1="50.4" x2="50.4" fill="none" id="connector40pin"/>
<g x="50.05" y="-0.35" height="0.7" fill="none" width="0.7" id="connector40terminal"/>
<line y1="0.35" y2="14.75" x1="50.4" x2="50.4" fill="none" id="connector46pin"/>
<rect x="50.05" y="-0.35" height="0.7" fill="none" width="0.7" id="connector46terminal"/>
<line y1="0.35" y2="14.75" stroke-width="0.2469" x1="50.4" x2="50.4" stroke="#787878" stroke-linecap="round" fill="none" id="connector87pin"/>
<g transform="matrix(1, 0, 0, 1, 18.0269, 5.69736)">
<g>
<g transform="rotate(270)">
<g>
<g transform="matrix(1, 0, 0, 1, -14.369, 33.0737)">
<text font-family="'DroidSans'" fill="#8C8C8C" font-size="3.5">5V</text>
</g>
</g>
</g>
</g>
</g>
<g x="50.05" y="-0.35" height="0.7" fill="none" width="0.7" id="connector87terminal"/>
<line y1="0.35" y2="14.75" stroke-width="0.2469" x1="64.8" x2="64.8" stroke="#787878" stroke-linecap="round" fill="none" id="connector90pin"/>
<g transform="matrix(1, 0, 0, 1, 23.1069, 5.69736)">
<g>
<g transform="rotate(270)">
<g>
<g transform="matrix(1, 0, 0, 1, -16.1776, 42.3922)">
<text font-family="'DroidSans'" fill="#8C8C8C" font-size="3.5">VIN</text>
</g>
</g>
</g>
</g>
</g>
<g x="64.449" y="-0.35" height="0.7" fill="none" width="0.701" id="connector90terminal"/>
<g transform="matrix(1, 0, 0, 1, 46.7862, 81.3828)">
<text font-family="'DroidSans'" id="label" font-size="4.25">Arduino</text>
</g>
<g transform="matrix(1, 0, 0, 1, 50.4893, 85.916)">
<text font-family="'DroidSans'" id="label_1_" font-size="4.25">Uno</text>
</g>
<g transform="matrix(1, 0, 0, 1, 48.5928, 90.4512)">
<text font-family="'DroidSans'" id="label_2_" font-size="4.25">(Rev3)</text>
</g>
<g transform="matrix(1, 0, 0, 1, 50.1416, 94.9844)">
<text font-family="'DroidSans'" font-size="4.25">I</text>
</g>
<g transform="matrix(1, 0, 0, 1, 51.5401, 94.9844)">
<text font-family="'DroidSans'" font-size="4.25">C</text>
</g>
<g transform="matrix(1, 0, 0, 1, 54.1031, 94.9844)">
<text font-family="'DroidSans'" font-size="4.25">S</text>
</g>
<g transform="matrix(1, 0, 0, 1, 56.3086, 94.9844)">
<text font-family="'DroidSans'" font-size="4.25">P</text>
</g>
</g>
</g></g><g partID='854210050'><g transform='translate(134.099,149.384)' ><g id="schematic">
<g>
<path d="M13.5,14.966L9.9,14.966c-0.193,0,-0.35,-0.156,-0.35,-0.35s0.156,-0.35,0.35,-0.35L13.5,14.266c0.193,0,0.35,0.156,0.35,0.35S13.694,14.966,13.5,14.966z"/>
</g>
<g>
<path d="M9.9,14.966L6.3,14.966c-0.193,0,-0.35,-0.156,-0.35,-0.35s0.157,-0.35,0.35,-0.35l3.6,0c0.193,0,0.35,0.156,0.35,0.35S10.093,14.966,9.9,14.966z"/>
</g>
<g>
<polygon points="9.9,14.616,6.3,7.416,9.9,7.416,13.5,7.416" fill="#FFFFFF"/>
<path d="M9.9,15.398L5.734,7.066l8.333,0L9.9,15.398zM6.866,7.766L9.9,13.834l3.034,-6.068L6.866,7.766z"/>
</g>
<g>
<path d="M9.9,14.841c-0.124,0,-0.225,-0.101,-0.225,-0.225l0,-7.2c0,-0.124,0.101,-0.225,0.225,-0.225s0.225,0.101,0.225,0.225l0,7.2C10.124,14.74,10.024,14.841,9.9,14.841z"/>
</g>
<g>
<path d="M1.8,12.141c-0.058,0,-0.115,-0.021,-0.159,-0.065c-0.088,-0.088,-0.088,-0.23,0,-0.318l2.34,-2.341c0.088,-0.088,0.23,-0.088,0.318,0s0.088,0.23,0,0.318l-2.34,2.341C1.915,12.12,1.858,12.141,1.8,12.141z"/>
</g>
<g>
<path d="M2.16,15.381c-0.058,0,-0.115,-0.021,-0.159,-0.065c-0.088,-0.088,-0.088,-0.23,0,-0.318l2.34,-2.34c0.088,-0.088,0.23,-0.088,0.318,0s0.088,0.23,0,0.318l-2.34,2.34C2.276,15.359,2.218,15.381,2.16,15.381z"/>
</g>
<g id="connector0pin">
<path d="M9.9,22.166c-0.193,0,-0.35,-0.156,-0.35,-0.35l0,-7.2c0,-0.193,0.156,-0.35,0.35,-0.35s0.35,0.156,0.35,0.35l0,7.2C10.249,22.01,10.093,22.166,9.9,22.166z" fill="#787878"/>
</g>
<g id="connector0terminal">
<rect x="9.9" y="21.816" height="0.001" fill="none" width="0.001"/>
</g>
<g transform="matrix(1, 0, 0, 1, 3.429, 6.4262)">
<g>
<g transform="rotate(270)">
<g>
<g enable-background="new    ">
<path d="M-11.647,5.54l-0.891,0L-12.538,5.388l0.342,-0.372c0.049,-0.053,0.093,-0.101,0.131,-0.145s0.071,-0.086,0.099,-0.128c0.026,-0.042,0.047,-0.084,0.062,-0.125c0.015,-0.043,0.021,-0.088,0.021,-0.138c0,-0.038,-0.005,-0.072,-0.017,-0.102s-0.027,-0.054,-0.047,-0.075c-0.021,-0.02,-0.045,-0.035,-0.073,-0.046s-0.06,-0.016,-0.094,-0.016c-0.062,0,-0.118,0.013,-0.167,0.038c-0.051,0.024,-0.098,0.057,-0.143,0.096l-0.1,-0.116c0.025,-0.023,0.055,-0.046,0.084,-0.065c0.029,-0.021,0.063,-0.039,0.097,-0.054s0.071,-0.026,0.109,-0.036c0.038,-0.008,0.079,-0.013,0.121,-0.013c0.063,0,0.119,0.009,0.169,0.026c0.051,0.018,0.094,0.043,0.129,0.076c0.035,0.032,0.063,0.072,0.082,0.119c0.019,0.048,0.028,0.101,0.028,0.16c0,0.056,-0.009,0.108,-0.026,0.158c-0.017,0.05,-0.041,0.1,-0.07,0.148c-0.031,0.048,-0.066,0.097,-0.109,0.146c-0.041,0.049,-0.087,0.1,-0.136,0.152L-12.32,5.37l0,0.008l0.673,0L-11.647,5.54z" fill="#787878"/>
</g>
</g>
</g>
</g>
</g>
<g id="connector1pin">
<path d="M9.9,7.766c-0.193,0,-0.35,-0.157,-0.35,-0.35l0,-7.2c0,-0.193,0.156,-0.35,0.35,-0.35s0.35,0.157,0.35,0.35l0,7.2C10.249,7.609,10.093,7.766,9.9,7.766z" fill="#787878"/>
</g>
<g id="connector1terminal">
<polygon points="9.9,0.216,9.901,0.216,9.901,0.216" fill="none"/>
</g>
<g transform="matrix(1, 0, 0, 1, 3.429, 1.3462)">
<g>
<g transform="rotate(270)">
<g>
<g enable-background="new    ">
<path d="M-2.616,5.54l-0.172,0L-2.788,4.648c0,-0.028,0,-0.058,0,-0.09s0.001,-0.063,0.002,-0.095c0.001,-0.032,0.002,-0.063,0.003,-0.092c0.001,-0.028,0.002,-0.054,0.002,-0.076c-0.011,0.012,-0.021,0.021,-0.029,0.03s-0.017,0.017,-0.026,0.024s-0.018,0.016,-0.028,0.025c-0.01,0.008,-0.021,0.019,-0.035,0.03l-0.145,0.118l-0.094,-0.12l0.374,-0.292l0.146,0L-2.618,5.54z" fill="#787878"/>
</g>
</g>
</g>
</g>
</g>
<g>
<path d="M0.18,13.536l1.08,-2.521l1.44,1.438L0.18,13.536z"/>
</g>
<g>
<path d="M0.54,16.776l1.08,-2.521l1.438,1.438L0.54,16.776z"/>
</g>
</g>
</g></g><g partID='854210090'><g transform='translate(114.849,124.904)' ><g xmlns="http://www.w3.org/2000/svg" id="schematic">
<line y1="3.096" xmlns="http://www.w3.org/2000/svg" y2="0.216" x1="7.55002" stroke-width="0.432002" x2="8.63003" stroke="#000000" stroke-linecap="round" class="other"/>
<line y1="0.216" xmlns="http://www.w3.org/2000/svg" y2="5.976" x1="8.63003" stroke-width="0.432002" x2="10.43" stroke="#000000" stroke-linecap="round" class="other"/>
<line y1="5.976" xmlns="http://www.w3.org/2000/svg" y2="0.216" x1="10.43" stroke-width="0.432002" x2="12.23" stroke="#000000" stroke-linecap="round" class="other"/>
<line y1="0.216" xmlns="http://www.w3.org/2000/svg" y2="5.976" x1="12.23" stroke-width="0.432002" x2="14.03" stroke="#000000" stroke-linecap="round" class="other"/>
<line y1="5.976" xmlns="http://www.w3.org/2000/svg" y2="0.216" x1="14.03" stroke-width="0.432002" x2="15.8301" stroke="#000000" stroke-linecap="round" class="other"/>
<line y1="0.216" xmlns="http://www.w3.org/2000/svg" y2="5.976" x1="15.8301" stroke-width="0.432002" x2="17.6301" stroke="#000000" stroke-linecap="round" class="other"/>
<line y1="5.976" xmlns="http://www.w3.org/2000/svg" y2="0.216" x1="17.6301" stroke-width="0.432002" x2="19.4301" stroke="#000000" stroke-linecap="round" class="other"/>
<line y1="0.216" xmlns="http://www.w3.org/2000/svg" y2="5.976" x1="19.4301" stroke-width="0.432002" x2="21.2301" stroke="#000000" stroke-linecap="round" class="other"/>
<line y1="5.976" xmlns="http://www.w3.org/2000/svg" y2="3.096" x1="21.2301" stroke-width="0.432002" x2="21.9501" stroke="#000000" stroke-linecap="round" class="other"/>
<line y1="3.096" xmlns="http://www.w3.org/2000/svg" y2="3.096" x1="29.1502" stroke-width="0.700001" x2="21.9501" connectorname="2" stroke="#787878" stroke-linecap="round" id="connector1pin" class="pin"/>
<g xmlns="http://www.w3.org/2000/svg" x="29.1502" stroke-width="0" y="3.096" stroke="none" height="0.000283465" width="0.000283466" fill="none" id="connector1terminal" class="terminal"/>
<text xmlns="http://www.w3.org/2000/svg" stroke-width="0" x="25.5501" text-anchor="middle" y="2.046" stroke="none" font-family="'Droid Sans'" fill="#8c8c8c" class="text" font-size="2.50001">2</text>
<line y1="3.096" xmlns="http://www.w3.org/2000/svg" y2="3.096" x1="0.350001" stroke-width="0.700001" x2="7.55002" connectorname="1" stroke="#787878" stroke-linecap="round" id="connector0pin" class="pin"/>
<g xmlns="http://www.w3.org/2000/svg" x="0.350001" stroke-width="0" y="3.096" stroke="none" height="0.000283465" width="0.000283466" fill="none" id="connector0terminal" class="terminal"/>
<text xmlns="http://www.w3.org/2000/svg" stroke-width="0" x="3.95001" text-anchor="middle" y="2.046" stroke="none" font-family="'Droid Sans'" fill="#8c8c8c" class="text" font-size="2.50001">1</text>
</g>
</g></g><g partID='854212180'><line stroke-linecap='round' stroke='#fa50e6' x1='143.999' y1='149.6' x2='144' y2='128' stroke-width='0.4' /></g><g partID='854212230'><line stroke-linecap='round' stroke='#8c3b00' x1='115.199' y1='128' x2='108' y2='128' stroke-width='0.4' /></g><g partID='854210950'><line stroke-linecap='round' stroke='#404040' x1='143.851' y1='185.589' x2='57.5995' y2='185.6' stroke-width='0.699998' /></g><g partID='854210840'><line stroke-linecap='round' stroke='#404040' x1='143.999' y1='171.2' x2='143.851' y2='185.589' stroke-width='0.699998' /></g><g partID='854206710' id='partLabel'><g transform='translate(108,0)' ><g font-size='5' font-style='normal' font-weight='normal' fill='#000000' font-family="'DroidSans'" id='schematicLabel' fill-opacity='1' stroke='none' ><text x='0' y='3.75'> </text></g></g></g><g partID='854210050' id='partLabel'><g transform='translate(147.779,138.184)' ><g font-size='5' font-style='normal' font-weight='normal' fill='#000000' font-family="'DroidSans'" id='schematicLabel' fill-opacity='1' stroke='none' ><text x='0' y='3.75'>LED1</text><text x='0' y='8.75'>Red (633nm)</text></g></g></g><g partID='854210090' id='partLabel'><g transform='translate(144.349,113.704)' ><g font-size='5' font-style='normal' font-weight='normal' fill='#000000' font-family="'DroidSans'" id='schematicLabel' fill-opacity='1' stroke='none' ><text x='0' y='3.75'>R1</text><text x='0' y='8.75'>220&#x3a9;</text></g></g></g></svg>